SplineFontDB: 3.0
FontName: source
FullName: source
FamilyName: source
Weight: Regular
Copyright: Generated from MetaFont bitmap by mftrace 1.2.18, http://www.xs4all.nl/~hanwen/mftrace/ 
Version: 001.001
ItalicAngle: 0
UnderlinePosition: -102
UnderlineWidth: 51
Ascent: 819
Descent: 205
LayerCount: 2
Layer: 0 0 "Back"  1
Layer: 1 0 "Fore"  0
FSType: 0
OS2Version: 0
OS2_WeightWidthSlopeOnly: 0
OS2_UseTypoMetrics: 0
CreationTime: 1431646992
ModificationTime: 1431661948
PfmFamily: 17
TTFWeight: 400
TTFWidth: 5
LineGap: 92
VLineGap: 92
OS2TypoAscent: 0
OS2TypoAOffset: 1
OS2TypoDescent: 0
OS2TypoDOffset: 1
OS2TypoLinegap: 92
OS2WinAscent: 0
OS2WinAOffset: 1
OS2WinDescent: 0
OS2WinDOffset: 1
HheadAscent: 0
HheadAOffset: 1
HheadDescent: 0
HheadDOffset: 1
OS2Vendor: 'PfEd'
Lookup: 4 0 1 "ligat"  {"ligat-1"  } ['liga' ('DFLT' <'dflt' > 'latn' <'dflt' > ) ]
MarkAttachClasses: 1
DEI: 91125
LangName: 1033 
Encoding: Custom
UnicodeInterp: none
NameList: Adobe Glyph List
DisplaySize: -36
AntiAlias: 1
FitToEm: 1
WidthSeparation: 90
WinInfo: 0 21 6
BeginPrivate: 3
lenIV 1 4
BlueValues 2 []
ForceBold 5 false
EndPrivate
TeXData: 1 0 0 346030 173015 115343 371406 1073742 115343 783286 444596 497025 792723 393216 433062 380633 303038 157286 324010 404750 52429 2506097 1059062 262144
BeginChars: 47 36

StartChar: quoteright
Encoding: 1 8217 1
Width: 0
VWidth: 7569
Flags: HW
LayerCount: 2
Fore
SplineSet
-455 780 m 0
 -448 794 -448 795 -359 795 c 0
 -348 795 -335 795 -321 795 c 0
 -307 795 -294 795 -281 795 c 0
 -231 795 -195 794 -195 788 c 2
 -195 788 -203 780 -211 764 c 0
 -219 748 -219 748 -345 748 c 0
 -416 748 -471 748 -471 756 c 2
 -471 756 -463 764 -455 780 c 0
EndSplineSet
Validated: 1
EndChar

StartChar: C
Encoding: 2 67 2
Width: 664
VWidth: 7569
Flags: HW
LayerCount: 2
Fore
SplineSet
555 654 m 0
 563 658 574 660 586 660 c 0
 598 660 610 658 618 654 c 0
 634 646 634 631 634 599 c 0
 626 536 610 489 563 418 c 1
 531 355 l 1
 531 268 l 2
 531 249 l 0
 531 180 530 178 508 142 c 2
 484 103 l 1
 476 189 l 1
 476 276 l 1
 452 252 l 2
 420 220 342 174 279 150 c 0
 224 126 129 103 74 103 c 2
 42 103 l 1
 42 339 l 2
 42 576 50 583 66 615 c 0
 74 631 90 647 90 647 c 2
 98 647 98 544 98 418 c 0
 98 393 98 372 98 352 c 0
 98 195 99 189 113 189 c 0
 121 189 161 197 200 205 c 0
 279 213 358 245 429 292 c 2
 476 323 l 1
 476 434 l 1
 476 536 l 1
 508 591 l 2
 524 623 547 646 555 654 c 0
571 568 m 0
 563 576 555 576 547 576 c 0
 531 576 531 568 531 481 c 0
 531 426 534 398 539 398 c 0
 543 398 548 412 555 442 c 0
 570 487 576 522 576 544 c 0
 576 557 574 565 571 568 c 0
287 513 m 0
 289 515 292 516 294 516 c 0
 301 516 311 509 334 497 c 2
 374 473 l 1
 358 442 l 2
 339 409 331 395 319 395 c 0
 311 395 302 401 287 410 c 2
 247 434 l 1
 263 465 l 2
 271 489 287 505 287 513 c 0
58 55 m 1
 82 95 l 1
 334 95 l 1
 586 95 l 1
 563 47 l 1
 539 8 l 1
 287 8 l 1
 34 8 l 1
 58 55 l 1
EndSplineSet
Validated: 1
EndChar

StartChar: Q
Encoding: 3 81 3
Width: 141
VWidth: 7569
Flags: HW
LayerCount: 2
Fore
SplineSet
64 607 m 2
 72 631 87 647 87 647 c 2
 95 647 95 544 95 418 c 2
 95 181 l 1
 72 142 l 1
 48 103 l 1
 40 331 l 1
 40 568 l 1
 64 607 l 2
EndSplineSet
Validated: 1
EndChar

StartChar: S
Encoding: 4 83 4
Width: 661
VWidth: 7569
Flags: HW
LayerCount: 2
Fore
SplineSet
552 654 m 0
 560 658 572 660 584 660 c 0
 596 660 607 658 615 654 c 0
 631 646 631 631 631 599 c 0
 623 536 607 489 560 418 c 1
 529 355 l 1
 529 268 l 2
 529 181 529 181 505 142 c 2
 481 103 l 1
 473 189 l 1
 473 276 l 1
 450 252 l 2
 418 220 339 174 276 150 c 0
 221 126 126 103 71 103 c 2
 40 103 l 1
 40 339 l 2
 40 576 47 583 63 615 c 0
 71 631 87 647 87 647 c 2
 95 647 95 544 95 418 c 0
 95 197 95 189 111 189 c 0
 119 189 158 197 197 205 c 0
 276 213 355 245 426 292 c 2
 473 323 l 1
 473 434 l 1
 473 536 l 1
 505 591 l 2
 521 623 544 646 552 654 c 0
568 568 m 0
 560 576 552 576 544 576 c 0
 530 576 529 570 529 507 c 0
 529 499 529 491 529 481 c 0
 529 426 531 398 536 398 c 0
 540 398 545 412 552 442 c 0
 567 487 573 522 573 544 c 0
 573 557 571 565 568 568 c 0
284 513 m 0
 286 515 288 516 291 516 c 0
 298 516 309 509 332 497 c 2
 371 473 l 1
 355 442 l 2
 336 409 328 395 316 395 c 0
 308 395 299 401 284 410 c 2
 245 434 l 1
 261 465 l 2
 269 489 284 505 284 513 c 0
EndSplineSet
Validated: 1
EndChar

StartChar: a
Encoding: 5 97 5
Width: 0
VWidth: 7569
Flags: HW
LayerCount: 2
Fore
SplineSet
-445 915 m 4
 -437 931 -430 931 -414 931 c 4
 -367 915 -335 876 -319 829 c 4
 -319 819 -319 813 -317 813 c 4
 -314 813 -307 825 -288 852 c 4
 -264 899 -225 931 -201 931 c 4
 -191 931 -186 927 -186 921 c 4
 -186 908 -208 887 -240 876 c 4
 -279 860 -288 845 -296 766 c 4
 -304 695 -319 655 -327 655 c 6
 -343 718 l 5
 -351 821 -383 868 -438 884 c 5
 -443 884 l 4
 -456 884 -462 884 -462 888 c 4
 -462 892 -456 900 -445 915 c 4
EndSplineSet
Validated: 1
EndChar

StartChar: b
Encoding: 6 98 6
Width: 688
VWidth: 7569
Flags: HW
LayerCount: 2
Fore
SplineSet
71 615 m 5
 95 654 l 5
 347 654 l 5
 599 654 l 5
 599 591 l 6
 599 512 583 449 544 378 c 6
 513 323 l 5
 536 331 l 5
 552 341 568 345 582 345 c 4
 601 345 617 337 631 323 c 4
 646 308 654 293 654 274 c 4
 654 253 644 227 623 189 c 4
 584 118 560 103 513 95 c 5
 473 95 l 5
 473 -95 l 5
 473 -276 l 5
 450 -315 l 6
 442 -339 426 -355 426 -355 c 6
 418 -355 418 -252 418 -118 c 6
 418 118 l 5
 394 134 l 5
 363 158 l 5
 331 142 l 6
 281 117 220 105 169 105 c 4
 139 105 112 109 95 118 c 4
 79 126 55 142 47 158 c 4
 37 174 32 192 32 212 c 4
 32 241 43 276 71 323 c 4
 118 402 150 418 205 418 c 5
 252 410 292 387 363 308 c 4
 394 272 405 259 413 259 c 4
 417 259 421 263 426 268 c 4
 465 292 497 323 513 355 c 4
 529 394 544 473 544 528 c 6
 544 568 l 5
 292 568 l 5
 47 568 l 5
 71 615 l 5
229 308 m 4
 206 321 180 327 156 327 c 4
 122 327 92 315 87 292 c 4
 87 284 95 260 103 244 c 4
 121 209 148 191 193 191 c 4
 208 191 225 193 245 197 c 4
 284 197 315 205 315 205 c 6
 315 205 316 206 316 207 c 4
 316 221 259 285 229 308 c 4
560 252 m 4
 551 256 542 258 532 258 c 4
 506 258 481 244 481 221 c 5
 479 214 477 208 477 203 c 4
 477 192 486 187 513 181 c 4
 537 181 599 189 599 205 c 4
 599 213 576 252 560 252 c 4
450 221 m 6
 452 226 454 230 454 233 c 4
 454 236 453 238 451 238 c 4
 449 238 445 235 442 229 c 5
 442 213 l 5
 450 213 450 221 450 221 c 6
EndSplineSet
Validated: 1
EndChar

StartChar: c
Encoding: 7 99 7
Width: 664
VWidth: 7569
Flags: HW
LayerCount: 2
Fore
SplineSet
555 654 m 0
 563 658 574 660 586 660 c 0
 598 660 610 658 618 654 c 0
 634 646 634 631 634 599 c 0
 626 536 610 489 563 418 c 1
 531 355 l 1
 531 268 l 2
 531 249 l 0
 531 180 530 178 508 142 c 2
 484 103 l 1
 476 189 l 1
 476 276 l 1
 452 252 l 2
 420 220 342 174 279 150 c 0
 224 126 129 103 74 103 c 2
 42 103 l 1
 42 339 l 2
 42 576 50 583 66 615 c 0
 74 631 90 647 90 647 c 2
 98 647 98 544 98 418 c 0
 98 393 98 372 98 352 c 0
 98 195 99 189 113 189 c 0
 121 189 161 197 200 205 c 0
 279 213 358 245 429 292 c 2
 476 323 l 1
 476 434 l 1
 476 536 l 1
 508 591 l 2
 524 623 547 646 555 654 c 0
571 568 m 0
 563 576 555 576 547 576 c 0
 531 576 531 568 531 481 c 0
 531 426 534 398 539 398 c 0
 543 398 548 412 555 442 c 0
 570 487 576 522 576 544 c 0
 576 557 574 565 571 568 c 0
58 55 m 1
 82 95 l 1
 334 95 l 1
 586 95 l 1
 563 47 l 1
 539 8 l 1
 287 8 l 1
 34 8 l 1
 58 55 l 1
EndSplineSet
Validated: 1
EndChar

StartChar: d
Encoding: 8 100 8
Width: 632
VWidth: 7569
Flags: HW
LayerCount: 2
Fore
SplineSet
64 615 m 4
 72 631 87 647 87 647 c 6
 95 647 95 544 95 418 c 6
 95 189 l 5
 143 197 l 5
 293 213 450 315 497 410 c 4
 505 434 513 473 521 505 c 4
 529 560 560 647 576 647 c 4
 584 647 584 441 584 181 c 6
 584 -276 l 5
 560 -315 l 6
 552 -339 537 -355 537 -355 c 6
 529 -355 529 -182 529 39 c 6
 529 426 l 5
 490 363 l 6
 443 284 364 205 285 166 c 4
 222 127 127 103 72 103 c 6
 40 103 l 5
 40 339 l 6
 40 576 48 583 64 615 c 4
EndSplineSet
Validated: 1
EndChar

StartChar: e
Encoding: 9 101 9
Width: 0
VWidth: 7569
Flags: HW
LayerCount: 2
Fore
SplineSet
-458 931 m 4
 -443 934 -427 936 -411 936 c 4
 -385 936 -360 931 -340 916 c 4
 -324 908 -308 884 -292 860 c 4
 -245 793 -222 772 -177 772 c 4
 -169 772 -160 773 -150 774 c 4
 -111 782 -80 813 -72 860 c 4
 -72 876 -64 908 -56 916 c 6
 -40 939 l 5
 -40 916 l 6
 -40 884 -80 805 -104 766 c 5
 -127 743 -161 731 -195 731 c 4
 -219 731 -243 737 -262 750 c 4
 -278 758 -292 781 -308 805 c 4
 -351 866 -380 890 -420 890 c 4
 -432 890 -444 888 -458 884 c 4
 -497 876 -522 844 -530 805 c 4
 -535 763 -547 735 -554 735 c 4
 -558 735 -560 742 -560 758 c 4
 -560 782 -530 853 -498 892 c 4
 -490 908 -466 923 -458 931 c 4
EndSplineSet
Validated: 1
EndChar

StartChar: f
Encoding: 10 102 10
Width: 689
VWidth: 7569
Flags: HW
LayerCount: 2
Fore
SplineSet
72 615 m 1
 96 654 l 1
 348 654 l 1
 601 654 l 1
 601 591 l 2
 601 512 584 449 545 378 c 0
 530 348 521 334 521 330 c 0
 521 329 522 328 523 328 c 0
 524 328 527 329 530 331 c 0
 543 341 559 345 575 345 c 0
 597 345 618 337 632 323 c 0
 646 309 654 293 654 274 c 0
 654 250 642 220 616 181 c 0
 577 110 561 95 506 87 c 0
 467 87 412 102 380 134 c 1
 364 158 l 1
 332 142 l 2
 285 118 214 103 167 103 c 0
 86 103 32 144 32 214 c 0
 32 219 32 224 33 229 c 0
 41 276 96 370 135 402 c 0
 152 413 171 418 191 418 c 0
 245 418 309 380 372 300 c 0
 397 269 401 257 410 257 c 0
 412 257 416 258 419 260 c 0
 451 276 498 323 514 355 c 0
 530 394 545 473 545 528 c 2
 545 568 l 1
 293 568 l 1
 49 568 l 1
 72 615 l 1
222 308 m 0
 201 322 174 328 150 328 c 0
 119 328 92 318 88 300 c 0
 88 292 96 268 104 252 c 0
 128 197 159 189 222 189 c 1
 254 197 285 197 293 205 c 2
 317 213 l 1
 285 252 l 2
 269 268 246 300 222 308 c 0
561 252 m 0
 553 256 541 258 531 258 c 0
 521 258 514 256 514 252 c 0
 513 250 512 247 512 244 c 0
 512 226 531 197 545 197 c 0
 561 193 575 191 585 191 c 0
 595 191 601 193 601 197 c 0
 601 213 577 252 561 252 c 0
459 229 m 0
 466 243 470 251 470 253 c 0
 469 254 l 0
 467 254 462 248 451 237 c 0
 445 226 439 218 439 215 c 0
 439 214 441 213 443 213 c 1
 443 211 444 210 446 210 c 0
 451 210 459 217 459 229 c 0
EndSplineSet
Validated: 1
EndChar

StartChar: g
Encoding: 11 103 11
Width: 615
VWidth: 7569
Flags: HW
LayerCount: 2
Fore
SplineSet
58 615 m 1
 81 654 l 1
 334 654 l 1
 586 654 l 1
 562 615 l 1
 539 568 l 1
 421 560 l 2
 295 552 231 537 160 513 c 1
 105 481 89 465 89 426 c 0
 89 347 137 283 208 244 c 0
 250 223 341 196 361 196 c 0
 363 196 365 196 365 197 c 0
 381 236 428 315 436 331 c 0
 447 342 463 348 480 348 c 0
 500 348 522 340 539 323 c 0
 554 308 562 292 562 271 c 0
 562 248 552 219 531 181 c 0
 499 118 476 103 444 103 c 2
 421 103 l 1
 421 -87 l 1
 421 -276 l 1
 397 -315 l 2
 389 -339 373 -355 373 -355 c 2
 365 -355 365 -252 365 -126 c 2
 365 103 l 1
 334 103 l 1
 145 135 34 221 34 339 c 0
 34 378 42 394 66 449 c 0
 82 481 105 520 121 536 c 2
 145 568 l 1
 89 568 l 1
 34 568 l 1
 58 615 l 1
468 252 m 1
 468 260 452 260 436 260 c 0
 433 260 l 0
 421 260 421 259 421 238 c 0
 421 235 421 233 421 229 c 2
 421 189 l 1
 460 189 l 2
 484 189 499 189 499 197 c 0
 500 198 501 200 501 202 c 0
 501 217 482 252 468 252 c 1
EndSplineSet
Validated: 1
EndChar

StartChar: h
Encoding: 12 104 12
Width: 615
VWidth: 7569
Flags: HW
LayerCount: 2
Fore
SplineSet
276 427 m 6
 292 458 l 5
 331 435 l 6
 355 419 371 403 371 403 c 6
 371 395 363 380 347 356 c 6
 331 324 l 5
 292 348 l 6
 268 364 253 380 253 380 c 6
 253 388 260 403 276 427 c 6
58 615 m 1
 82 654 l 1
 334 654 l 1
 586 654 l 1
 563 615 l 1
 539 568 l 1
 421 560 l 2
 295 552 232 537 161 513 c 1
 106 481 90 465 90 426 c 0
 90 347 137 283 208 244 c 0
 250 223 342 196 362 196 c 0
 364 196 366 196 366 197 c 0
 382 236 429 315 437 331 c 0
 448 342 464 348 481 348 c 0
 501 348 522 340 539 323 c 0
 554 308 562 292 562 271 c 0
 562 248 552 219 531 181 c 0
 499 118 476 103 444 103 c 2
 421 103 l 1
 421 -87 l 1
 421 -276 l 1
 397 -315 l 2
 389 -339 374 -355 374 -355 c 2
 366 -355 366 -252 366 -126 c 2
 366 103 l 1
 334 103 l 1
 145 135 34 221 34 339 c 0
 34 378 42 394 66 449 c 0
 82 481 105 520 121 536 c 2
 145 568 l 1
 90 568 l 1
 34 568 l 1
 58 615 l 1
468 252 m 1
 468 260 453 260 437 260 c 0
 434 260 l 0
 421 260 421 259 421 229 c 2
 421 189 l 1
 460 189 l 2
 484 189 500 189 500 197 c 0
 501 198 502 200 502 202 c 0
 502 217 482 252 468 252 c 1
EndSplineSet
Validated: 1
EndChar

StartChar: i
Encoding: 13 105 13
Width: 0
VWidth: 7569
Flags: HW
LayerCount: 2
Fore
SplineSet
-300 878 m 4
 -166 957 -55 1028 -47 1028 c 4
 -43 1028 -41 1026 -41 1022 c 4
 -41 1018 -43 1012 -47 1004 c 4
 -55 996 -134 942 -300 832 c 5
 -434 753 -552 682 -552 682 c 6
 -555 682 -556 682 -556 684 c 4
 -556 688 -552 695 -552 706 c 5
 -544 714 -458 775 -300 878 c 4
EndSplineSet
Validated: 1
EndChar

StartChar: j
Encoding: 14 106 14
Width: 0
VWidth: 7569
Flags: HW
LayerCount: 2
Fore
SplineSet
-321 980 m 0
 -313 996 -305 1003 -305 1003 c 2
 -297 1003 -286 949 -286 894 c 4
 -286 784 -305 735 -321 735 c 0
 -325 735 -338 790 -338 849 c 0
 -338 908 -325 972 -321 980 c 0
EndSplineSet
Validated: 1
EndChar

StartChar: k
Encoding: 15 107 15
Width: 615
VWidth: 7569
Flags: HW
LayerCount: 2
Fore
SplineSet
55 615 m 1
 79 654 l 1
 331 654 l 1
 583 654 l 1
 560 615 l 1
 536 568 l 1
 441 568 l 1
 283 552 157 520 110 473 c 0
 100 463 96 447 96 427 c 0
 96 383 119 322 157 284 c 0
 212 229 316 205 489 189 c 1
 583 189 l 1
 560 142 l 1
 536 103 l 1
 433 103 l 1
 315 111 244 126 173 158 c 0
 78 205 39 260 39 339 c 0
 39 378 47 394 71 449 c 0
 87 481 110 520 126 536 c 2
 150 568 l 1
 94 568 l 1
 31 568 l 1
 55 615 l 1
EndSplineSet
Validated: 1
EndChar

StartChar: l
Encoding: 16 108 16
Width: 612
VWidth: 7569
Flags: HW
LayerCount: 2
Fore
SplineSet
304 607 m 0
 312 631 328 647 328 647 c 1
 343 552 l 1
 359 386 391 300 454 237 c 0
 478 213 494 205 533 197 c 2
 580 189 l 1
 556 142 l 2
 537 114 524 103 505 103 c 0
 492 103 477 108 454 118 c 0
 391 150 336 213 312 308 c 0
 306 337 296 353 291 353 c 0
 289 353 288 351 288 347 c 0
 288 331 210 198 186 166 c 0
 154 134 91 103 52 103 c 2
 28 103 l 1
 52 150 l 2
 68 174 83 189 91 189 c 0
 115 189 178 213 202 237 c 0
 241 269 264 339 272 473 c 0
 280 544 288 575 304 607 c 0
EndSplineSet
Validated: 1
EndChar

StartChar: m
Encoding: 17 109 17
Width: 636
VWidth: 7569
Flags: HW
LayerCount: 2
Fore
SplineSet
381 72 m 6
 397 103 l 5
 436 80 l 6
 460 64 476 48 476 48 c 6
 476 40 468 25 452 1 c 6
 436 -31 l 5
 397 -7 l 6
 373 9 357 25 357 25 c 6
 357 33 365 48 381 72 c 6
72 615 m 1
 96 654 l 1
 348 654 l 1
 600 654 l 1
 600 576 l 1
 592 481 576 442 529 355 c 2
 498 300 l 1
 521 276 l 2
 537 268 561 245 569 221 c 1
 600 189 l 1
 577 142 l 2
 561 118 545 103 545 103 c 1
 545 103 530 118 514 142 c 0
 498 158 482 189 466 197 c 2
 443 221 l 1
 411 197 l 1
 340 134 254 103 167 103 c 0
 86 103 32 144 32 214 c 0
 32 219 32 224 33 229 c 0
 41 276 96 370 135 402 c 0
 153 413 179 419 208 419 c 0
 280 419 377 387 466 331 c 2
 490 315 l 1
 506 339 l 2
 530 378 537 426 537 497 c 2
 545 568 l 1
 293 568 l 1
 48 568 l 1
 72 615 l 1
230 323 m 0
 205 328 182 331 162 331 c 0
 120 331 93 319 88 292 c 0
 88 284 96 260 104 244 c 0
 122 209 148 191 193 191 c 0
 208 191 226 193 246 197 c 0
 285 197 332 213 356 229 c 2
 411 252 l 1
 380 268 l 2
 341 292 277 315 230 323 c 0
EndSplineSet
Validated: 1
EndChar

StartChar: n
Encoding: 18 110 18
Width: 630
VWidth: 7569
Flags: HW
LayerCount: 2
Fore
SplineSet
64 615 m 0
 72 631 87 647 87 647 c 2
 95 647 95 544 95 418 c 2
 95 189 l 1
 143 197 l 1
 293 213 450 315 497 410 c 0
 505 434 513 473 521 505 c 0
 529 560 560 647 576 647 c 0
 584 647 584 544 584 418 c 2
 584 181 l 1
 560 142 l 1
 537 103 l 1
 529 260 l 1
 529 426 l 1
 489 363 l 2
 442 284 363 205 284 166 c 0
 221 127 127 103 72 103 c 2
 40 103 l 1
 40 339 l 2
 40 576 48 583 64 615 c 0
284 513 m 0
 286 515 288 516 291 516 c 0
 298 516 309 509 332 497 c 2
 371 473 l 1
 355 442 l 2
 336 409 328 395 316 395 c 0
 308 395 299 401 284 410 c 2
 245 434 l 1
 261 465 l 2
 269 489 284 505 284 513 c 0
EndSplineSet
Validated: 1
EndChar

StartChar: o
Encoding: 19 111 19
Width: 0
VWidth: 7569
Flags: HW
LayerCount: 2
Fore
SplineSet
-118 974 m 4
 -111 977 -104 979 -95 979 c 4
 -83 979 -69 975 -55 966 c 4
 -44 959 -40 944 -40 926 c 4
 -40 863 -96 756 -157 737 c 4
 -168 734 -179 732 -190 732 c 4
 -234 732 -276 758 -307 808 c 4
 -350 869 -379 892 -419 892 c 4
 -431 892 -443 891 -457 887 c 4
 -496 879 -520 847 -528 808 c 4
 -533 766 -546 738 -553 738 c 4
 -557 738 -559 745 -559 761 c 4
 -559 785 -520 864 -496 903 c 5
 -473 926 -440 938 -406 938 c 4
 -382 938 -358 932 -339 919 c 4
 -323 911 -307 887 -291 863 c 4
 -244 796 -221 775 -176 775 c 4
 -168 775 -159 776 -149 777 c 4
 -125 785 -78 816 -78 840 c 4
 -78 848 -86 848 -102 840 c 5
 -134 840 -165 855 -165 887 c 4
 -165 911 -142 958 -118 974 c 4
-78 919 m 4
 -83 929 -97 935 -109 935 c 4
 -117 935 -123 932 -126 926 c 4
 -130 922 -132 918 -132 914 c 4
 -132 900 -114 887 -102 887 c 4
 -81 887 -74 891 -74 900 c 4
 -74 905 -75 911 -78 919 c 4
EndSplineSet
Validated: 1
EndChar

StartChar: p
Encoding: 20 112 20
Width: 636
VWidth: 7569
Flags: HW
LayerCount: 2
Fore
SplineSet
72 615 m 1
 96 654 l 1
 348 654 l 1
 600 654 l 1
 600 576 l 1
 592 481 576 442 529 355 c 2
 498 300 l 1
 521 276 l 2
 537 268 561 245 569 221 c 1
 600 189 l 1
 577 142 l 2
 561 118 545 103 545 103 c 1
 545 103 530 118 514 142 c 0
 498 158 482 189 466 197 c 2
 443 221 l 1
 411 197 l 1
 340 134 254 103 167 103 c 0
 86 103 32 144 32 214 c 0
 32 219 32 224 33 229 c 0
 41 276 96 370 135 402 c 0
 153 413 179 419 208 419 c 0
 280 419 377 387 466 331 c 2
 490 315 l 1
 506 339 l 2
 530 378 537 426 537 497 c 2
 545 568 l 1
 293 568 l 1
 48 568 l 1
 72 615 l 1
230 323 m 0
 205 328 182 331 162 331 c 0
 120 331 93 319 88 292 c 0
 88 284 96 260 104 244 c 0
 122 209 148 191 193 191 c 0
 208 191 226 193 246 197 c 0
 285 197 332 213 356 229 c 2
 411 252 l 1
 380 268 l 2
 341 292 277 315 230 323 c 0
EndSplineSet
Validated: 1
EndChar

StartChar: r
Encoding: 21 114 21
Width: 451
VWidth: 7569
Flags: HW
LayerCount: 2
Fore
SplineSet
178 639 m 0
 199 649 222 654 245 654 c 0
 308 654 370 618 399 560 c 0
 409 540 415 521 415 501 c 0
 415 475 405 446 383 410 c 0
 367 378 344 355 336 347 c 0
 328 339 288 331 209 331 c 0
 154 331 99 323 91 323 c 1
 91 315 99 300 107 276 c 0
 135 220 183 191 240 191 c 0
 263 191 287 196 312 205 c 0
 344 221 359 228 359 252 c 0
 367 276 399 339 407 339 c 0
 411 339 412 336 412 330 c 0
 412 298 360 190 320 150 c 0
 292 118 248 102 204 102 c 0
 173 102 141 110 115 126 c 0
 68 158 44 197 36 244 c 0
 36 246 36 249 36 251 c 0
 36 285 37 295 67 347 c 1
 91 371 115 402 123 410 c 1
 139 410 178 418 233 418 c 0
 253 418 l 0
 335 418 353 419 353 436 c 0
 353 440 352 444 351 449 c 0
 343 481 320 520 288 544 c 0
 266 558 236 564 206 564 c 0
 151 564 96 543 91 513 c 0
 91 489 44 410 36 410 c 0
 35 410 34 412 34 416 c 0
 34 434 49 489 75 528 c 0
 114 599 139 623 178 639 c 0
EndSplineSet
Validated: 1
EndChar

StartChar: s
Encoding: 22 115 22
Width: 661
VWidth: 7569
Flags: HW
LayerCount: 2
Fore
SplineSet
552 654 m 0
 560 658 572 660 584 660 c 0
 596 660 607 658 615 654 c 0
 631 646 631 631 631 599 c 0
 623 536 607 489 560 418 c 1
 529 355 l 1
 529 268 l 2
 529 181 529 181 505 142 c 2
 481 103 l 1
 473 189 l 1
 473 276 l 1
 450 252 l 2
 418 220 339 174 276 150 c 0
 221 126 126 103 71 103 c 2
 40 103 l 1
 40 339 l 2
 40 576 47 583 63 615 c 0
 71 631 87 647 87 647 c 2
 95 647 95 544 95 418 c 0
 95 197 95 189 111 189 c 0
 119 189 158 197 197 205 c 0
 276 213 355 245 426 292 c 2
 473 323 l 1
 473 434 l 1
 473 536 l 1
 505 591 l 2
 521 623 544 646 552 654 c 0
568 568 m 0
 560 576 552 576 544 576 c 0
 530 576 529 570 529 507 c 0
 529 499 529 491 529 481 c 0
 529 426 531 398 536 398 c 0
 540 398 545 412 552 442 c 0
 567 487 573 522 573 544 c 0
 573 557 571 565 568 568 c 0
EndSplineSet
Validated: 1
EndChar

StartChar: t
Encoding: 23 116 23
Width: 630
VWidth: 7569
Flags: HW
LayerCount: 2
Fore
SplineSet
64 615 m 4
 72 631 87 647 87 647 c 6
 95 647 95 544 95 418 c 6
 95 189 l 5
 143 197 l 5
 293 213 450 315 497 410 c 4
 505 434 513 473 521 505 c 4
 529 560 560 647 576 647 c 4
 584 647 584 544 584 418 c 6
 584 181 l 5
 560 142 l 5
 537 103 l 5
 529 260 l 5
 529 426 l 5
 489 363 l 6
 442 284 363 205 284 166 c 4
 221 127 127 103 72 103 c 6
 40 103 l 5
 40 339 l 6
 40 576 48 583 64 615 c 4
EndSplineSet
Validated: 1
EndChar

StartChar: u
Encoding: 24 117 24
Width: 0
VWidth: 7569
Flags: HW
LayerCount: 2
Fore
SplineSet
-153 993 m 4
 -136 1010 -119 1018 -102 1018 c 4
 -87 1018 -73 1012 -58 1001 c 5
 -50 985 -42 969 -42 953 c 4
 -42 929 -65 883 -89 867 c 4
 -98 860 -108 857 -118 857 c 4
 -145 857 -172 878 -184 906 c 5
 -184 930 l 5
 -373 812 l 6
 -476 749 -563 701 -563 701 c 6
 -566 701 -566 701 -566 703 c 4
 -566 707 -563 714 -563 725 c 4
 -555 741 -492 780 -358 859 c 4
 -255 922 -161 985 -153 993 c 4
-82 953 m 4
 -90 961 -105 969 -105 969 c 6
 -113 969 -145 954 -153 946 c 5
 -153 946 -153 938 -145 930 c 4
 -129 914 -121 906 -105 906 c 4
 -84 906 -73 912 -73 926 c 4
 -73 933 -77 942 -82 953 c 4
EndSplineSet
Validated: 1
EndChar

StartChar: v
Encoding: 25 118 25
Width: 688
VWidth: 7569
Flags: HW
LayerCount: 2
Fore
SplineSet
267 32 m 6
 283 63 l 5
 322 40 l 6
 346 24 361 8 361 8 c 6
 361 0 354 -15 338 -39 c 6
 322 -71 l 5
 283 -47 l 6
 259 -31 243 -15 243 -15 c 6
 243 -7 251 8 267 32 c 6
71 615 m 1
 94 654 l 1
 347 654 l 1
 599 654 l 1
 599 591 l 2
 599 512 583 449 544 378 c 2
 512 323 l 1
 536 331 l 1
 552 341 568 345 582 345 c 0
 601 345 617 337 631 323 c 0
 646 308 654 293 654 274 c 0
 654 253 644 227 623 189 c 0
 584 118 559 103 512 95 c 1
 473 95 l 1
 473 -95 l 1
 473 -276 l 1
 449 -315 l 2
 441 -339 426 -355 426 -355 c 2
 418 -355 418 -252 418 -118 c 2
 418 118 l 1
 394 134 l 1
 362 158 l 1
 331 142 l 2
 281 117 219 105 168 105 c 0
 138 105 111 109 94 118 c 0
 78 126 55 142 47 158 c 0
 37 174 32 192 32 212 c 0
 32 241 43 276 71 323 c 0
 118 402 150 418 205 418 c 1
 252 410 291 387 362 308 c 0
 393 272 405 259 413 259 c 0
 417 259 421 263 426 268 c 0
 465 292 496 323 512 355 c 0
 528 394 544 473 544 528 c 2
 544 568 l 1
 291 568 l 1
 47 568 l 1
 71 615 l 1
228 308 m 0
 205 321 179 327 155 327 c 0
 121 327 91 315 86 292 c 0
 86 284 94 260 102 244 c 0
 120 209 147 191 192 191 c 0
 207 191 224 193 244 197 c 0
 283 197 315 205 315 205 c 2
 315 205 316 206 316 207 c 0
 316 221 258 285 228 308 c 0
560 252 m 0
 551 256 542 258 532 258 c 0
 506 258 481 244 481 221 c 1
 479 214 477 208 477 203 c 0
 477 192 485 187 512 181 c 0
 536 181 599 189 599 205 c 0
 599 213 576 252 560 252 c 0
449 221 m 2
 457 237 449 245 441 229 c 1
 441 213 l 1
 449 213 449 221 449 221 c 2
EndSplineSet
Validated: 1
EndChar

StartChar: w
Encoding: 26 119 26
Width: 589
VWidth: 7569
Flags: HW
LayerCount: 2
Fore
SplineSet
231 647 m 0
 250 653 274 655 299 655 c 0
 344 655 392 646 428 631 c 0
 506 586 552 502 552 412 c 0
 552 393 550 374 546 355 c 0
 530 300 467 189 428 150 c 0
 388 117 335 101 281 101 c 0
 217 101 152 123 105 166 c 0
 63 208 34 279 34 345 c 0
 34 365 36 384 42 402 c 0
 58 457 121 568 160 607 c 1
 184 615 207 639 231 647 c 0
381 536 m 0
 349 555 308 563 268 563 c 0
 190 563 113 530 97 473 c 0
 92 455 90 436 90 417 c 0
 90 338 130 259 207 221 c 0
 246 197 255 197 318 197 c 0
 365 197 381 197 420 213 c 0
 475 245 491 260 499 315 c 0
 500 321 500 328 500 334 c 0
 500 415 454 500 381 536 c 0
EndSplineSet
Validated: 1
EndChar

StartChar: x
Encoding: 27 120 27
Width: 615
VWidth: 7569
Flags: HW
LayerCount: 2
Fore
SplineSet
57 615 m 5
 81 654 l 5
 333 654 l 5
 586 654 l 5
 562 615 l 5
 538 568 l 5
 420 560 l 6
 286 552 223 537 152 505 c 4
 97 473 89 457 89 410 c 4
 97 307 192 229 318 205 c 5
 349 205 l 5
 381 260 l 6
 420 331 436 347 475 347 c 4
 499 347 514 339 538 323 c 5
 553 304 561 289 561 270 c 4
 561 249 551 222 531 181 c 4
 485 104 477 103 388 103 c 4
 381 103 l 4
 168 119 34 205 34 339 c 4
 34 378 41 394 65 449 c 4
 81 481 105 520 121 536 c 6
 144 568 l 5
 89 568 l 5
 34 568 l 5
 57 615 l 5
460 252 m 4
 452 256 442 258 433 258 c 4
 424 258 416 256 412 252 c 4
 411 251 410 249 410 246 c 4
 410 234 424 210 444 197 c 4
 456 193 468 191 478 191 c 4
 488 191 495 193 499 197 c 4
 500 198 501 200 501 202 c 4
 501 215 481 245 460 252 c 4
EndSplineSet
Validated: 1
EndChar

StartChar: z
Encoding: 28 122 28
Width: 632
VWidth: 7569
Flags: HW
LayerCount: 2
Fore
SplineSet
64 615 m 0
 72 631 87 647 87 647 c 2
 95 647 95 544 95 418 c 2
 95 189 l 1
 143 197 l 1
 293 213 450 315 497 410 c 0
 505 434 513 473 521 505 c 0
 529 560 560 647 576 647 c 0
 584 647 584 441 584 181 c 2
 584 -276 l 1
 560 -315 l 2
 552 -339 537 -355 537 -355 c 2
 529 -355 529 -182 529 39 c 2
 529 426 l 1
 490 363 l 2
 443 284 364 205 285 166 c 0
 222 127 127 103 72 103 c 2
 40 103 l 1
 40 339 l 2
 40 576 48 583 64 615 c 0
285 513 m 0
 287 515 290 516 292 516 c 0
 299 516 309 509 332 497 c 2
 371 473 l 1
 355 442 l 2
 336 409 328 395 317 395 c 0
 310 395 300 401 285 410 c 2
 245 434 l 1
 261 465 l 2
 269 489 285 505 285 513 c 0
EndSplineSet
Validated: 1
EndChar

StartChar: I
Encoding: 32 73 31
Width: 141
VWidth: 7569
Flags: HW
LayerCount: 2
Fore
SplineSet
207 925 m 4
 341 1004 452 1075 460 1075 c 4
 464 1075 466 1073 466 1069 c 4
 466 1065 464 1059 460 1051 c 4
 452 1043 373 988 207 878 c 5
 73 799 -45 728 -45 728 c 6
 -48 728 -48 729 -48 731 c 4
 -48 735 -45 741 -45 752 c 5
 -37 760 49 822 207 925 c 4
EndSplineSet
Refer: 3 81 N 1 0 0 1 0 0 2
Validated: 1
EndChar

StartChar: U
Encoding: 33 85 32
Width: 141
VWidth: 7569
Flags: HW
LayerCount: 2
Fore
SplineSet
395 1028 m 4
 412 1045 429 1053 446 1053 c 4
 461 1053 475 1047 490 1036 c 5
 498 1020 506 1004 506 988 c 4
 506 964 483 918 459 902 c 4
 450 895 440 893 430 893 c 4
 403 893 376 913 364 941 c 5
 364 965 l 5
 175 847 l 6
 72 784 -15 736 -15 736 c 6
 -18 736 -18 737 -18 739 c 4
 -18 743 -15 749 -15 760 c 4
 -7 776 56 815 190 894 c 4
 293 957 387 1020 395 1028 c 4
466 988 m 4
 458 996 443 1004 443 1004 c 6
 435 1004 403 989 395 981 c 5
 395 981 395 973 403 965 c 4
 419 949 427 941 443 941 c 4
 464 941 475 947 475 961 c 4
 475 968 471 977 466 988 c 4
EndSplineSet
Refer: 3 81 N 1 0 0 1 0 0 2
Validated: 1
EndChar

